HIERARCHY
ROOT Hips
{
	OFFSET 0.00000 0.00000 0.00000
	CHANNELS 6 Xposition Yposition Zposition Zrotation Yrotation Xrotation 
	JOINT LHipJoint
	{
		OFFSET 0 0 0
		CHANNELS 3 Zrotation Yrotation Xrotation
		JOINT LeftUpLeg
		{
			OFFSET 1.88772 -1.62769 0.85636
			CHANNELS 3 Zrotation Yrotation Xrotation
			JOINT LeftLeg
			{
				OFFSET 2.39836 -6.58946 0.00000
				CHANNELS 3 Zrotation Yrotation Xrotation
				JOINT LeftFoot
				{
					OFFSET 2.78523 -7.65237 0.00000
					CHANNELS 3 Zrotation Yrotation Xrotation
					JOINT LeftToeBase
					{
						OFFSET 0.19551 -0.53715 1.90694
						CHANNELS 3 Zrotation Yrotation Xrotation
						End Site
						{
							OFFSET 0.00000 -0.00000 0.99735
						}
					}
				}
			}
		}
	}
	JOINT RHipJoint
	{
		OFFSET 0 0 0
		CHANNELS 3 Zrotation Yrotation Xrotation
		JOINT RightUpLeg
		{
			OFFSET -1.74282 -1.62769 0.85636
			CHANNELS 3 Zrotation Yrotation Xrotation
			JOINT RightLeg
			{
				OFFSET -2.36062 -6.48575 0.00000
				CHANNELS 3 Zrotation Yrotation Xrotation
				JOINT RightFoot
				{
					OFFSET -2.76258 -7.59014 0.00000
					CHANNELS 3 Zrotation Yrotation Xrotation
					JOINT RightToeBase
					{
						OFFSET -0.19308 -0.53048 2.03952
						CHANNELS 3 Zrotation Yrotation Xrotation
						End Site
						{
							OFFSET -0.00000 -0.00000 1.06031
						}
					}
				}
			}
		}
	}
	JOINT LowerBack
	{
		OFFSET 0 0 0
		CHANNELS 3 Zrotation Yrotation Xrotation
		JOINT Spine
		{
			OFFSET -0.08299 2.03160 -0.30721
			CHANNELS 3 Zrotation Yrotation Xrotation
			JOINT Spine1
			{
				OFFSET -0.01030 2.00603 0.13891
				CHANNELS 3 Zrotation Yrotation Xrotation
				JOINT Neck
				{
					OFFSET 0 0 0
					CHANNELS 3 Zrotation Yrotation Xrotation
					JOINT Neck1
					{
						OFFSET 0.04282 1.69578 0.19991
						CHANNELS 3 Zrotation Yrotation Xrotation
						JOINT Head
						{
							OFFSET -0.08665 1.66622 -0.03785
							CHANNELS 3 Zrotation Yrotation Xrotation
							End Site
							{
								OFFSET -0.03699 1.83329 -0.04094
							}
						}
					}
				}
				JOINT LeftShoulder
				{
					OFFSET 0 0 0
					CHANNELS 3 Zrotation Yrotation Xrotation
					JOINT LeftArm
					{
						OFFSET 3.04219 1.50803 -0.05347
						CHANNELS 3 Zrotation Yrotation Xrotation
						JOINT LeftForeArm
						{
							OFFSET 5.79199 -0.00000 0.00000
							CHANNELS 3 Zrotation Yrotation Xrotation
							JOINT LeftHand
							{
								OFFSET 3.49908 -0.00000 0.00000
								CHANNELS 3 Zrotation Yrotation Xrotation
								JOINT LeftFingerBase
								{
									OFFSET 0 0 0
									CHANNELS 3 Zrotation Yrotation Xrotation
									JOINT LeftHandIndex1
									{
										OFFSET 0.59386 -0.00000 0.00000
										CHANNELS 3 Zrotation Yrotation Xrotation
										End Site
										{
											OFFSET 0.47879 -0.00000 0.00000
										}
									}
								}
								JOINT LThumb
								{
									OFFSET 0 0 0
									CHANNELS 3 Zrotation Yrotation Xrotation
									End Site
									{
										OFFSET 0.48610 -0.00000 0.48610
									}
								}
							}
						}
					}
				}
				JOINT RightShoulder
				{
					OFFSET 0 0 0
					CHANNELS 3 Zrotation Yrotation Xrotation
					JOINT RightArm
					{
						OFFSET -3.30316 1.18853 0.11175
						CHANNELS 3 Zrotation Yrotation Xrotation
						JOINT RightForeArm
						{
							OFFSET -5.73799 -0.00000 0.00000
							CHANNELS 3 Zrotation Yrotation Xrotation
							JOINT RightHand
							{
								OFFSET -3.57916 -0.00000 -0.00000
								CHANNELS 3 Zrotation Yrotation Xrotation
								JOINT RightFingerBase
								{
									OFFSET 0 0 0
									CHANNELS 3 Zrotation Yrotation Xrotation
									JOINT RightHandIndex1
									{
										OFFSET -0.61558 -0.00000 0.00000
										CHANNELS 3 Zrotation Yrotation Xrotation
										End Site
										{
											OFFSET -0.49629 -0.00000 0.00000
										}
									}
								}
								JOINT RThumb
								{
									OFFSET 0 0 0
									CHANNELS 3 Zrotation Yrotation Xrotation
									End Site
									{
										OFFSET -0.50387 -0.00000 0.50387
									}
								}
							}
						}
					}
				}
			}
		}
	}
}
MOTION
Frames: 12
Frame Time: 0.00884956
0.00 0.00 0.00 0 0 0 0 0 0 -21 0 0 0 0 0 0 0 0 0 0 0 0 0 0 21 0 0 0 0 0 0 0 0 0 0 0 0 0 0 0 0 0 0 0 0 0 0 -16 0 0 21 0 0 11 0 0 0 -8 0 0 0 0 0 0 0 0 0 0 0 0 0 0 0 0 0 0 0 0 8 0 0 0 0 0 0 0 0 0 0 0 0 0 0 0 0 0
0.00 0.00 0.00 8.5201 -60.4301 -0.6205 0.0000 0.0000 0.0000 -18.0825 -9.8155 -23.3729 3.7140 11.7698 34.9224 1.2486 7.2924 -24.9020 0.0769 1.7883 4.9210 0.0000 0.0000 0.0000 14.6088 12.9387 -7.6078 -2.4845 -9.8097 28.3627 -1.8348 -8.9704 -30.1447 -0.0311 -1.1392 3.1320 -6.3756 1.1307 2.8021 -2.0427 1.0381 -3.4389 1.3706 0.6970 -5.2355 2.6075 0.6169 -7.3659 -1.9685 0.6738 3.3975 -1.0534 0.3101 2.3729 0.0000 -0.0000 0.0000 -79.4968 11.7058 17.8181 16.8636 -26.6776 -4.0259 -0.0000 0.0000 -16.1976 11.9209 -20.8536 -4.2979 -7.1250 0.0000 -0.0000 -10.6047 8.9973 8.9750 0.0000 -0.0000 0.0000 81.2649 -16.8861 42.3716 -27.5664 38.7140 -9.8513 0.0000 -0.0000 -8.0143 -22.4516 -31.2820 12.1102 7.1250 -0.0000 -0.0000 11.3292 -62.9533 -4.9718
0.00 0.00 0.00 6.7338 -50.2001 1.8925 0.0000 0.0000 0.0000 -23.7574 -4.0413 -21.6477 4.0794 12.2653 36.6771 2.1291 -0.4734 -27.4930 0.0073 0.5529 1.5194 0.0000 0.0000 0.0000 10.5330 4.8488 -24.2160 -6.7392 -15.1083 47.8810 -0.7656 -7.6302 -21.0088 -0.4635 4.3668 -12.1110 -7.6940 -0.5347 4.0052 -0.8454 -1.2492 -2.6654 3.5341 -0.3814 -4.8969 0.5741 -0.8146 -5.1686 -3.1903 -1.0861 -0.0116 -1.1064 -0.5928 0.8391 0.0000 0.0000 0.0000 -78.6780 8.8454 28.2427 26.5198 -37.7174 -9.2038 -0.0000 0.0000 -19.9501 14.9726 -23.1328 -5.9978 -7.1250 0.0000 -0.0000 -8.7711 6.3563 7.8408 0.0000 0.0000 0.0000 79.3171 -23.3245 46.0549 -70.9948 58.5902 -43.6190 0.0000 -0.0000 -18.3407 -27.8571 -33.0630 16.0842 7.1250 -0.0000 -0.0000 5.9609 -66.2528 -3.0605
0.00 0.00 0.00 5.3139 -48.2745 2.7561 0.0000 0.0000 0.0000 -22.6388 -5.0889 -21.3108 4.0339 12.2054 36.4627 2.0004 -0.6940 -26.5704 0.0018 0.2775 0.7625 0.0000 0.0000 0.0000 10.8958 4.3146 -24.6076 -7.5230 -15.7569 50.8257 -1.2604 -2.4136 -22.2014 -0.4595 -4.3482 12.0583 -6.7765 -0.8478 4.4361 -0.7479 -1.6280 -2.4733 3.1598 -0.6003 -4.9091 1.5295 -0.5427 -5.3082 -4.0427 -0.7720 -0.0738 -1.5359 -0.4480 0.8510 0.0000 -0.0000 0.0000 -77.8929 8.9538 29.1375 27.7513 -38.8863 -9.9672 -0.0000 0.0000 -20.9504 15.8464 -22.1596 -6.1110 -7.1250 0.0000 -0.0000 -8.1721 7.2265 7.1542 0.0000 -0.0000 0.0000 78.8929 -24.6946 46.6172 -89.8742 59.9999 -59.8911 0.0000 -0.0000 -19.1766 -29.4623 -32.9304 17.0714 7.1250 -0.0000 -0.0000 3.7532 -66.5888 -1.9542
0.00 0.00 0.00 6.3933 -46.1061 2.1824 0.0000 0.0000 0.0000 -23.5023 -5.9563 -20.6278 3.9332 12.0710 35.9836 1.9162 -1.3337 -25.8131 0.0095 0.6292 1.7290 0.0000 0.0000 0.0000 9.5147 4.2157 -26.8384 -7.8510 -16.0086 52.0242 -0.7423 -6.0342 -19.5653 -0.2295 3.0836 -8.5115 -8.2051 -1.1759 4.4683 -0.7425 -2.1671 -2.5141 4.0072 -0.8205 -4.8750 1.7063 -0.2995 -5.4131 -4.5109 -0.4375 0.3301 -1.7143 -0.2921 1.0088 0.0000 0.0000 0.0000 -77.7488 9.3102 29.3581 29.1993 -40.1971 -10.8891 -0.0000 0.0000 -21.2251 12.7161 -21.4483 -4.7170 -7.1250 0.0000 -0.0000 -10.1161 8.3185 8.6863 0.0000 0.0000 0.0000 77.8911 -25.3799 46.6096 -108.3096 58.6946 -75.7871 0.0000 -0.0000 -18.7330 -26.5408 -29.2045 13.6963 7.1250 -0.0000 -0.0000 5.2363 -61.9033 -2.1564
0.00 0.00 0.00 4.4472 -43.3761 3.5732 0.0000 0.0000 0.0000 -21.7545 -7.6060 -20.3848 3.9901 12.1472 36.2546 1.8480 -2.3496 -25.0800 0.0141 0.7661 2.1055 0.0000 0.0000 0.0000 10.5354 4.2125 -26.5439 -7.5702 -15.7938 50.9993 -0.7332 -6.1693 -19.5725 -0.3358 3.7237 -10.3007 -6.7335 -1.4688 4.9640 -0.4931 -2.4912 -2.6455 3.4916 -1.0057 -5.2922 1.4828 -0.4250 -4.9829 -4.3804 -0.6001 0.0637 -1.6306 -0.3641 0.8443 0.0000 -0.0000 0.0000 -77.2312 9.9390 30.4543 31.0921 -41.8113 -12.1312 -0.0000 0.0000 -22.0802 9.7140 -21.1452 -3.5336 -7.1250 0.0000 -0.0000 -12.0057 8.9272 10.2305 0.0000 -0.0000 0.0000 76.7343 -26.5307 46.0190 -124.8683 54.8666 -89.6763 0.0000 -0.0000 -15.0572 -28.9860 -26.2563 13.7705 7.1250 -0.0000 -0.0000 1.0804 -59.3960 -0.3799
0.00 0.00 0.00 4.1937 -39.8353 4.4340 0.0000 0.0000 0.0000 -20.7127 -10.2425 -21.0423 3.9860 12.1418 36.2353 1.6269 -4.1498 -23.1346 0.4450 4.2803 11.8666 0.0000 0.0000 0.0000 9.9941 5.5094 -25.2301 -6.5972 -14.9831 47.3338 -0.7216 -5.9426 -19.2893 -0.0921 1.9571 -5.3872 -7.1186 -1.5163 4.7582 -0.4637 -2.5621 -2.6293 3.7352 -1.0327 -5.1350 1.8091 -0.9935 -4.9938 -4.8546 -1.4002 -0.6301 -1.8512 -0.7643 0.6009 -0.0000 0.0000 0.0000 -76.5843 10.0062 31.7108 34.2381 -44.2604 -14.2790 -0.0000 0.0000 -22.4357 13.4100 -21.4269 -4.9778 -7.1250 0.0000 -0.0000 -9.6768 8.2622 8.3083 -0.0000 0.0000 0.0000 74.8466 -25.4172 42.0155 -139.6980 48.2478 -101.3358 0.0000 -0.0000 -5.8964 -29.2049 -22.0703 11.8619 7.1250 -0.0000 -0.0000 -0.3784 -54.8942 0.0920
0.00 0.00 0.00 3.2049 -32.3647 6.0377 0.0000 0.0000 0.0000 -18.8949 -12.3072 -22.3024 3.9904 12.1477 36.2563 1.1820 -6.7757 -19.4195 0.0959 1.9976 5.4990 0.0000 0.0000 0.0000 10.0529 6.4622 -22.3482 -5.1081 -13.5045 41.2875 -0.9699 -7.4820 -22.7481 -0.0080 0.5791 -1.5913 -6.7931 -1.6995 5.4364 -0.4000 -2.8433 -2.8154 3.6760 -1.1554 -5.6970 0.6755 -2.5626 -4.6059 -3.4902 -3.4740 -1.7272 -1.2334 -1.7702 0.1570 0.0000 -0.0000 0.0000 -75.3908 9.7617 34.9863 40.3364 -48.2679 -18.6899 -0.0000 0.0000 -23.6158 11.5140 -20.5481 -4.0897 -7.1250 0.0000 -0.0000 -10.8576 9.3429 9.1206 0.0000 -0.0000 0.0000 69.3347 -23.3749 29.6495 -153.6615 37.5410 -110.9069 0.0000 0.0000 5.4178 -34.7227 -19.5324 13.0454 7.1250 -0.0000 -0.0000 -6.7335 -53.2012 1.3633
0.00 0.00 0.00 1.6709 -22.3047 9.0818 0.0000 0.0000 0.0000 -15.1104 -18.0736 -25.3613 4.1118 12.3077 36.8295 0.7017 -9.9027 -15.4661 0.3084 3.5701 9.8703 0.0000 0.0000 0.0000 11.6693 6.7130 -19.5599 -3.7371 -11.8022 35.0356 -1.1904 -12.0282 -28.1389 -0.1975 -2.8617 7.8940 -5.5255 -1.7899 6.0136 -0.4227 -2.9169 -3.1675 2.9851 -1.2095 -6.4474 -0.2762 -4.7450 -4.8709 -2.2117 -6.3400 -2.2508 -0.7140 -3.1868 0.0422 0.0000 -0.0000 0.0000 -73.4544 7.9419 39.7870 49.2443 -52.6861 -25.5719 -0.0000 0.0000 -25.3239 12.6358 -21.3553 -4.6671 -7.1250 0.0000 -0.0000 -10.1642 8.4204 8.7081 0.0000 -0.0000 0.0000 59.0922 -17.1651 1.8790 -158.6720 32.2092 -113.7762 0.0000 -0.0000 -2.9647 -41.4805 -23.4463 19.3809 7.1250 -0.0000 -0.0000 -14.6566 -59.4440 5.2394
0.00 0.00 0.00 0.6961 -14.2116 11.0185 0.0000 0.0000 0.0000 -11.5053 -21.4848 -29.9864 4.4096 12.6864 38.2057 0.4432 -11.6440 -13.4465 0.0706 -1.7141 -4.7162 0.0000 0.0000 0.0000 14.0191 4.4308 -18.5957 -3.1457 -10.9273 32.0351 -1.3072 -12.6685 -29.4918 -0.0129 0.7329 -2.0141 -4.4372 -1.6058 7.3293 -0.0007 -2.6087 -2.9840 2.8347 -1.0780 -7.0587 -1.3867 -6.1861 -3.5088 -3.3750 -8.3048 -3.5121 -0.8382 -4.1333 -0.5937 0.0000 0.0000 0.0000 -73.5212 5.3076 40.6901 57.0935 -55.4844 -31.9342 -0.0000 0.0000 -27.4291 14.8104 -22.7138 -5.8294 -7.1250 0.0000 -0.0000 -8.8505 6.7995 7.8368 0.0000 0.0000 0.0000 44.3370 -6.0129 -24.3396 -146.0786 44.0264 -105.9416 0.0000 0.0000 1.5496 -46.5680 -27.3586 25.8932 7.1250 -0.0000 -0.0000 -22.8506 -65.5765 11.6291
0.00 0.00 0.00 0.8210 -12.3629 11.3829 0.0000 0.0000 0.0000 -10.7028 -22.0757 -31.3472 4.4683 12.7588 38.4720 0.3308 -12.3335 -12.5711 0.0935 -1.9726 -5.4298 0.0000 0.0000 0.0000 14.5616 3.5503 -19.3446 -3.1106 -10.8720 31.8495 -1.2860 -13.1654 -29.7806 -0.0750 1.7665 -4.8607 -4.1732 -1.2812 7.7000 -0.1635 -2.1772 -3.0019 2.4735 -0.8745 -7.3409 -1.6709 -6.4673 -2.6596 -4.2226 -8.6921 -2.9408 -1.0329 -4.3201 -0.5899 -0.0000 0.0000 0.0000 -73.6844 4.8621 40.1093 59.0990 -56.0650 -33.5925 -0.0000 0.0000 -28.3286 13.4067 -22.3513 -5.1793 -7.1250 0.0000 -0.0000 -9.7127 7.3362 8.5195 -0.0000 0.0000 0.0000 37.8670 0.0021 -30.3914 -132.0141 52.1502 -95.4254 0.0000 0.0000 3.4515 -47.6972 -29.1701 28.1734 7.1250 -0.0000 -0.0000 -25.5397 -68.0306 14.4933
0.00 0.00 0.00 0.7259 -12.1165 11.4913 0.0000 0.0000 0.0000 -10.1359 -22.1303 -32.0968 4.5326 12.8372 38.7623 0.3011 -12.1386 -12.1639 0.0510 -1.4578 -4.0095 0.0000 0.0000 0.0000 15.1215 2.6085 -20.1763 -3.1155 -10.8797 31.8754 -1.4072 -12.8334 -30.2919 -0.0683 1.6855 -4.6373 -3.9172 -0.8903 7.9904 -0.2314 -1.6363 -2.7172 2.1889 -0.6286 -7.2501 -2.3901 -6.3767 -1.6130 -3.8223 -8.6177 -3.6043 -0.7474 -4.2498 -0.9143 0.0000 0.0000 0.0000 -74.0883 4.0450 39.1285 59.4332 -56.1570 -33.8699 -0.0000 0.0000 -29.3109 14.2282 -22.4139 -5.5223 -7.1250 0.0000 -0.0000 -9.2007 7.1743 8.0872 0.0000 0.0000 0.0000 33.1427 5.0602 -33.6822 -116.4983 57.1731 -82.7304 0.0000 0.0000 2.8790 -49.6825 -31.1003 31.3290 7.1250 -0.0000 -0.0000 -30.6612 -70.8296 19.4677
